<?xml version="1.0" encoding="UTF-8"?>
<svg xmlns="http://www.w3.org/2000/svg" version="1.1" viewBox="0 0 46 37">
  <defs>
    <style>
      .cls-1 {
        fill: #ecd14b;
      }

      .cls-2 {
        fill: none;
      }

      .cls-3 {
        fill: #ebcd38;
      }
    </style>
  </defs>
  <!-- Generator: Adobe Illustrator 28.6.0, SVG Export Plug-In . SVG Version: 1.2.0 Build 709)  -->
  <g>
    <g id="Layer_1">
      <path class="cls-2" d="M22.9,7.9c-1.9,0-3.7.8-5.1,2.1-1.4,1.4-2.1,3.2-2.1,5.1,0,4,7.2,13.6,7.2,13.6,0,0,7.2-9.6,7.2-13.6s-.8-3.7-2.1-5.1c-1.4-1.4-3.2-2.1-5.1-2.1ZM22.9,17.5c-1.3,0-2.4-1.1-2.4-2.4s1.1-2.4,2.4-2.4,2.4,1.1,2.4,2.4-1.1,2.4-2.4,2.4Z"/>
      <path class="cls-3" d="M43.4.3H2.4C1.3.3.4,1.2.4,2.3v32c0,1.1.9,2,2,2h41c1.1,0,2-.9,2-2V2.3c0-1.1-.9-2-2-2ZM22.9,28.7s-7.2-9.6-7.2-13.6.8-3.7,2.1-5.1c1.4-1.4,3.2-2.1,5.1-2.1s3.7.8,5.1,2.1c1.4,1.4,2.1,3.2,2.1,5.1,0,4-7.2,13.6-7.2,13.6Z"/>
      <path class="cls-1" d="M22.9,12.7c-1.3,0-2.4,1.1-2.4,2.4s1.1,2.4,2.4,2.4,2.4-1.1,2.4-2.4-1.1-2.4-2.4-2.4Z"/>
    </g>
  </g>
</svg>