<svg width="46" height="37" viewBox="0 0 46 37" fill="none" xmlns="http://www.w3.org/2000/svg">
<rect x="0.402832" y="0.309082" width="45" height="36" rx="2" fill="#ECD14B"/>
<path d="M30.1172 15.1029C30.1172 19.0948 22.9029 28.7297 22.9029 28.7297C22.9029 28.7297 15.6887 19.0948 15.6887 15.1029C15.6887 13.1896 16.4488 11.3546 17.8017 10.0017C19.1546 8.64874 20.9896 7.88867 22.9029 7.88867C24.8163 7.88867 26.6512 8.64874 28.0042 10.0017C29.3571 11.3546 30.1172 13.1896 30.1172 15.1029V15.1029Z" fill="#180C09" stroke="#180C09" stroke-linecap="round" stroke-linejoin="round"/>
<path d="M22.903 17.5077C24.2311 17.5077 25.3078 16.4311 25.3078 15.103C25.3078 13.7749 24.2311 12.6982 22.903 12.6982C21.5749 12.6982 20.4983 13.7749 20.4983 15.103C20.4983 16.4311 21.5749 17.5077 22.903 17.5077Z" fill="#ECD14B" stroke="#180C09" stroke-linecap="round" stroke-linejoin="round"/>
</svg>
