<?xml version="1.0" encoding="UTF-8"?>
<svg xmlns="http://www.w3.org/2000/svg" version="1.1" viewBox="0 0 623 652">
  <defs>
    <style>
      .cls-1 {
        fill: #f2e8da;
      }

      .cls-2 {
        fill: #eab818;
      }

      .cls-3 {
        fill: #f4ead8;
      }

      .cls-4 {
        fill: #5c7c33;
      }

      .cls-5 {
        fill: #e5c213;
      }

      .cls-6 {
        fill: #d8b009;
      }
    </style>
  </defs>
  <!-- Generator: Adobe Illustrator 28.6.0, SVG Export Plug-In . SVG Version: 1.2.0 Build 709)  -->
  <g>
    <g id="Layer_6">
      <g>
        <path class="cls-2" d="M538.3,594h41.9v-34.8c-13.2,0-23.9-10.8-23.9-24.1s10.7-24.1,23.9-24.1v-36.5c-13.2,0-23.9-10.8-23.9-24.1s10.7-24.1,23.9-24.1v-36.5c-13.2,0-23.9-10.8-23.9-24.1s10.7-24.1,23.9-24.1v-36.5c-13.2,0-23.9-10.8-23.9-24.1s10.7-24.1,23.9-24.1v-36.5c-13.2,0-23.9-10.8-23.9-24.1s10.7-24.1,23.9-24.1v-36.5c-13.2,0-23.9-10.8-23.9-24.1s10.7-24.1,23.9-24.1v-36.5h-39c0,13.3-10.7,24.1-23.9,24.1s-23.9-10.8-23.9-24.1h-36.2c0,13.3-10.7,24.1-23.9,24.1s-23.9-10.8-23.9-24.1h-36.2c0,13.3-10.7,24.1-23.9,24.1s-23.9-10.8-23.9-24.1h-36.2c0,13.3-10.7,24.1-23.9,24.1s-23.9-10.8-23.9-24.1h-36.2c0,13.3-10.7,24.1-23.9,24.1s-23.9-10.8-23.9-24.1h-36.2c0,13.3-10.7,24.1-23.9,24.1s-23.9-10.8-23.9-24.1h-39v35.6c13.2,0,23.9,10.8,23.9,24.1s-10.7,24.1-23.9,24.1v36.5c13.2,0,23.9,10.8,23.9,24.1s-10.7,24.1-23.9,24.1v36.5c13.2,0,23.9,10.8,23.9,24.1s-10.7,24.1-23.9,24.1v36.5c13.2,0,23.9,10.8,23.9,24.1s-10.7,24.1-23.9,24.1v36.5c13.2,0,23.9,10.8,23.9,24.1s-10.7,24.1-23.9,24.1v36.5c13.2,0,23.9,10.8,23.9,24.1s-10.7,24.1-23.9,24.1v35.6h36.2c0-13.3,10.7-24.1,23.9-24.1s23.9,10.8,23.9,24.1h36.2c0-13.3,10.7-24.1,23.9-24.1s23.9,10.8,23.9,24.1h36.2c0-13.3,10.7-24.1,23.9-24.1s23.9,10.8,23.9,24.1h36.2c0-13.3,10.7-24.1,23.9-24.1s23.9,10.8,23.9,24.1h36.2c0-13.3,10.7-24.1,23.9-24.1s23.9,10.8,23.9,24.1h36.2c0-13.3,10.7-24.1,23.9-24.1s23.9,10.8,23.9,24.1h0Z"/>
        <rect class="cls-1" x="101.8" y="117.1" width="411" height="411"/>
        <path class="cls-4" d="M137.9,476.3h-17.5v-40.1h17.5v6l-3.4,9.6,1.4.4,5.5-16h18l-7.6,20,7.6,20.1h-18l-3.5-10.2v10.2h0Z"/>
        <path class="cls-4" d="M160.6,460.8c0-2.6.5-4.9,1.4-7,.9-2.1,2.2-3.8,3.8-5.3,1.6-1.5,3.6-2.6,5.8-3.4,2.2-.8,4.6-1.2,7.2-1.2s5,.4,7.2,1.2,4.1,1.9,5.8,3.4c1.6,1.5,2.9,3.2,3.8,5.3.9,2.1,1.4,4.4,1.4,7s-.5,4.9-1.4,7c-.9,2.1-2.2,3.9-3.8,5.3-1.6,1.5-3.6,2.6-5.8,3.4s-4.6,1.2-7.2,1.2-5-.4-7.2-1.2c-2.2-.8-4.1-1.9-5.8-3.4s-2.9-3.2-3.8-5.3c-.9-2.1-1.4-4.4-1.4-7h0ZM185.9,459.7l-.9-1.3c-.6.4-1.4.7-2.4,1s-2.1.6-3.2.9c-1.1.2-2.3.4-3.5.6-1.2.1-2.2.2-3.2.2v1.4c1,0,2.1,0,3.3-.2,1.2-.1,2.5-.3,3.7-.5,1.2-.2,2.4-.5,3.5-.9s2-.8,2.8-1.2h0Z"/>
        <path class="cls-4" d="M212.5,445l1.8,1.8c1.8-1,3.4-1.7,5.1-2.1s3.4-.7,5.1-.7,2.6.2,3.9.7c1.2.5,2.2,1.2,3.1,2.1s1.6,2.1,2.1,3.4c.5,1.4.8,2.9.8,4.6v21.5h-16.4v-18.1l-1.9.7v17.4h-16.4v-31.4h12.8Z"/>
        <path class="cls-4" d="M261.2,459.2c-.6,0-1.4,0-2.2,0s-1.6-.1-2.5-.2-1.7-.2-2.5-.4c-.9-.1-1.6-.3-2.4-.5v1.5c.6.2,1.4.3,2.2.4s1.7.2,2.6.3c.9.1,1.7.2,2.5.2.8,0,1.6,0,2.2,0v15.6c-1.7.5-3.3.8-4.8.9-1.5.1-2.9.2-4.1.2-2.1,0-3.9-.3-5.6-.9-1.7-.6-3.2-1.4-4.4-2.4-1.2-1.1-2.2-2.3-2.9-3.9s-1-3.2-1-5.1v-7.2h-2.2v-12.9h1.8v-8.8h17.5v8.8h5.7v14.2h0Z"/>
        <path class="cls-4" d="M263.3,467.9c0-2.7.5-4.7,1.6-6.2,1-1.5,2.7-2.6,5-3.4.9-.3,1.8-.6,2.9-.8,1.1-.2,2.2-.4,3.4-.6,1.2-.2,2.4-.3,3.6-.4,1.2-.1,2.4-.1,3.5-.1v-1.6c-2.6,0-5.4.2-8.5.7s-6,1.2-9,2.2v-10.7c2.2-1,4.6-1.7,7.3-2.2,2.7-.5,5.9-.7,9.5-.7s5,.2,6.8.7c1.9.5,3.4,1.3,4.6,2.4,1.2,1.1,2.1,2.6,2.6,4.4.5,1.8.8,4,.8,6.7v18.2h-12.8v-1.8c0-2-.3-4-.8-5.8-.5-1.8-1.2-3.4-2.1-4.5l-1.5.6c.5.5.8,1.2,1.2,2,.3.8.6,1.7.9,2.7s.4,2,.6,3,.2,2,.2,3c-1.3.5-2.8.9-4.5,1.2s-3.6.5-5.9.5c-3.2,0-5.6-.9-7.1-2.5-1.6-1.7-2.4-3.9-2.4-6.7h0Z"/>
        <path class="cls-4" d="M318.3,476.4h-17.5v-40.2h17.5v15.2l-2.8,7.1,1.4.4,5.5-13.9h17.4l-7.6,15.7,7.6,15.7h-18l-3.5-7.4v7.4Z"/>
        <path class="cls-4" d="M365.2,459.2c-.6,0-1.4,0-2.2,0s-1.6-.1-2.5-.2-1.7-.2-2.5-.4c-.9-.1-1.6-.3-2.4-.5v1.5c.6.2,1.4.3,2.2.4s1.7.2,2.6.3c.9.1,1.7.2,2.5.2.8,0,1.6,0,2.2,0v15.6c-1.7.5-3.3.8-4.8.9s-2.9.2-4.1.2c-2,0-3.9-.3-5.6-.9-1.7-.6-3.2-1.4-4.4-2.4-1.2-1.1-2.2-2.3-2.9-3.9s-1-3.2-1-5.1v-7.2h-2.2v-12.9h1.8v-8.8h17.5v8.8h5.7v14.2h0Z"/>
        <path class="cls-4" d="M401.3,476.4h-17.5v-40.2h17.5v8.3c-1.2.5-2.5,1-3.7,1.5s-2.5,1.2-3.7,2l.5,1.6c1.2-.7,2.5-1.4,4-2.1,1.5-.7,3.1-1.3,4.7-1.8s3.2-1,4.8-1.3c1.6-.3,3-.5,4.4-.5s2.7.2,3.8.5,1.9.9,2.6,1.6c.7.8,1.2,1.7,1.5,2.9s.5,2.6.5,4.4v23h-17.5v-16.5l-1.9.7v15.8h0Z"/>
        <path class="cls-4" d="M422.8,460.8c0-2.6.4-4.9,1.3-7,.9-2.1,2.1-3.9,3.7-5.3,1.6-1.5,3.6-2.6,6-3.4,2.4-.8,5.1-1.2,8.1-1.2s7.2.4,9.8,1.3,4.5,2.2,6,4.1v15.9c-3.4,0-6.7-.1-10-.4-3.2-.3-6.5-.7-9.7-1.4v1.8c1.5.4,3,.7,4.7.9s3.3.4,5,.5c1.7.1,3.4.2,5.1.3,1.7,0,3.3,0,4.9,0v5.5c-2.3,1.8-4.9,3-7.7,3.7-2.9.6-6.1,1-9.8,1s-5-.4-7.1-1.1c-2.1-.7-4-1.8-5.5-3.2s-2.7-3.1-3.5-5.1c-.8-2-1.3-4.3-1.3-6.9h0ZM438,454.1v1.5c.6.2,1.4.3,2.2.4s1.7.2,2.6.3c.9.1,1.7.2,2.5.2.8,0,1.6,0,2.2,0v-1.4c-.6,0-1.4,0-2.2,0-.8,0-1.6-.1-2.5-.2s-1.7-.2-2.5-.4c-.9-.1-1.6-.3-2.4-.5h0Z"/>
        <path class="cls-4" d="M477.3,447.1c.8-.5,1.8-1,2.8-1.4,1-.4,2.1-.7,3.2-1,1.1-.2,2.2-.4,3.3-.4,1.1,0,2.1,0,3.1.2v13.1c-.9,0-1.9,0-3,0s-2.1.1-3.2.3-2.2.3-3.3.6c-1.1.3-2.1.6-3.1,1v16.9h-16.4v-31.4h14.7l1.8,2.1h0Z"/>
        <path class="cls-6" d="M403.3,390.5h-180.8c-16.6,0-30-13.6-30-30.2l-7-149.8c0-16.6,20.6-31,37.2-31h180.6c16.6,0,30.2,13.6,30.2,30.2v139.8c0,16.6-13.6,41-30.2,41h0Z"/>
        <path class="cls-6" d="M403.3,391h-180.8c-16.8,0-30.5-13.8-30.5-30.7l-7-149.8c0-17,20.7-31.5,37.7-31.5h180.6c16.9,0,30.7,13.8,30.7,30.7v139.8c0,16.3-13.2,41.5-30.7,41.5h0ZM222.7,180c-16.5,0-36.7,14.1-36.7,30.5l7,149.8c0,16.4,13.2,29.8,29.5,29.8h180.8c16.4,0,29.7-24.5,29.7-40.5v-139.8c0-16.4-13.3-29.7-29.7-29.7h-180.6Z"/>
        <rect class="cls-5" x="135.5" y="213.5" width="50" height="100" rx="7" ry="7"/>
        <path class="cls-6" d="M178.5,314h-36c-4.1,0-7.5-3.4-7.5-7.5v-86c0-4.1,3.4-7.5,7.5-7.5h36c4.1,0,7.5,3.4,7.5,7.5v86c0,4.1-3.4,7.5-7.5,7.5ZM142.5,214c-3.6,0-6.5,2.9-6.5,6.5v86c0,3.6,2.9,6.5,6.5,6.5h36c3.6,0,6.5-2.9,6.5-6.5v-86c0-3.6-2.9-6.5-6.5-6.5h-36Z"/>
        <rect class="cls-5" x="428.5" y="213.5" width="50" height="100" rx="7" ry="7"/>
        <path class="cls-6" d="M471.5,314h-36c-4.1,0-7.5-3.4-7.5-7.5v-86c0-4.1,3.4-7.5,7.5-7.5h36c4.1,0,7.5,3.4,7.5,7.5v86c0,4.1-3.4,7.5-7.5,7.5ZM435.5,214c-3.6,0-6.5,2.9-6.5,6.5v86c0,3.6,2.9,6.5,6.5,6.5h36c3.6,0,6.5-2.9,6.5-6.5v-86c0-3.6-2.9-6.5-6.5-6.5h-36Z"/>
        <rect class="cls-3" x="185.5" y="203.5" width="227" height="186" rx="7" ry="7"/>
        <path class="cls-6" d="M405.5,392h-213c-5.2,0-9.5-4.3-9.5-9.5v-172c0-5.2,4.3-9.5,9.5-9.5h213c5.2,0,9.5,4.3,9.5,9.5v172c0,5.2-4.3,9.5-9.5,9.5ZM192.5,206c-2.5,0-4.5,2-4.5,4.5v172c0,2.5,2,4.5,4.5,4.5h213c2.5,0,4.5-2,4.5-4.5v-172c0-2.5-2-4.5-4.5-4.5h-213Z"/>
        <circle class="cls-6" cx="251.5" cy="298.5" r="9"/>
        <path class="cls-6" d="M251.5,310c-6.3,0-11.5-5.2-11.5-11.5s5.2-11.5,11.5-11.5,11.5,5.2,11.5,11.5-5.2,11.5-11.5,11.5ZM251.5,292c-3.6,0-6.5,2.9-6.5,6.5s2.9,6.5,6.5,6.5,6.5-2.9,6.5-6.5-2.9-6.5-6.5-6.5Z"/>
        <polygon class="cls-6" points="364.8 301 333.2 298.3 359.7 282.8 362.3 287.2 349.4 294.7 365.2 296 364.8 301"/>
        <path class="cls-6" d="M293.8,344.7c-7.3,0-12.5-6.9-12.8-7.2l4-3-2,1.5,2-1.5s4,5.2,8.7,5.2h0c2.7,0,5.4-1.8,7.9-5.2h.1c.1-.3,3.3-3.9,8.7-4.1,4.7-.2,9.5,2.1,14.3,7l-3.5,3.5c-3.8-3.7-7.3-5.6-10.5-5.5-3,0-4.9,1.9-5.2,2.2-3.5,4.7-7.5,7.1-11.9,7.1h0Z"/>
      </g>
    </g>
  </g>
</svg>