<?xml version="1.0" encoding="UTF-8"?><svg id="Layer_6" xmlns="http://www.w3.org/2000/svg" viewBox="0 0 623 652"><defs><style>.cls-1{fill:#f2e8da;}.cls-2{fill:#eab818;}.cls-3{fill:#f4ead8;}.cls-4{fill:#5c7c33;}.cls-5{fill:#e5c213;}.cls-6{fill:#d8b009;}</style></defs><path class="cls-2" d="M538.35,594.04h41.88v-34.79c-13.2,0-23.91-10.79-23.91-24.11s10.7-24.11,23.91-24.11v-36.47c-13.2,0-23.91-10.79-23.91-24.11s10.7-24.11,23.91-24.11v-36.47c-13.2,0-23.91-10.79-23.91-24.11s10.7-24.11,23.91-24.11v-36.47c-13.2,0-23.91-10.79-23.91-24.11s10.7-24.11,23.91-24.11v-36.47c-13.2,0-23.91-10.79-23.91-24.11s10.7-24.11,23.91-24.11v-36.47c-13.2,0-23.91-10.79-23.91-24.11s10.7-24.11,23.91-24.11v-36.47h-39.03c0,13.31-10.7,24.11-23.91,24.11s-23.91-10.79-23.91-24.11h-36.17c0,13.31-10.7,24.11-23.91,24.11s-23.91-10.79-23.91-24.11h-36.17c0,13.31-10.7,24.11-23.91,24.11s-23.91-10.79-23.91-24.11h-36.17c0,13.31-10.7,24.11-23.91,24.11s-23.91-10.79-23.91-24.11h-36.17c0,13.31-10.7,24.11-23.91,24.11s-23.91-10.79-23.91-24.11h-36.17c0,13.31-10.7,24.11-23.91,24.11s-23.91-10.79-23.91-24.11h-39.03v35.63c13.2,0,23.91,10.79,23.91,24.11s-10.7,24.11-23.91,24.11v36.47c13.2,0,23.91,10.79,23.91,24.11s-10.7,24.11-23.91,24.11v36.47c13.2,0,23.91,10.79,23.91,24.11s-10.7,24.11-23.91,24.11v36.47c13.2,0,23.91,10.79,23.91,24.11s-10.7,24.11-23.91,24.11v36.47c13.2,0,23.91,10.79,23.91,24.11s-10.7,24.11-23.91,24.11v36.47c13.2,0,23.91,10.79,23.91,24.11s-10.7,24.11-23.91,24.11v35.63h36.17c0-13.31,10.7-24.11,23.91-24.11s23.91,10.79,23.91,24.11h36.17c0-13.31,10.7-24.11,23.91-24.11s23.91,10.79,23.91,24.11h36.17c0-13.31,10.7-24.11,23.91-24.11s23.91,10.79,23.91,24.11h36.17c0-13.31,10.7-24.11,23.91-24.11s23.91,10.79,23.91,24.11h36.17c0-13.31,10.7-24.11,23.91-24.11s23.91,10.79,23.91,24.11h36.17c0-13.31,10.7-24.11,23.91-24.11s23.91,10.79,23.91,24.11Z"/><rect class="cls-1" x="101.84" y="117.09" width="411" height="411"/><path class="cls-4" d="M137.95,476.3h-17.46v-40.12h17.46v6.01l-3.39,9.61,1.39.36,5.5-15.97h17.98l-7.65,20.03,7.65,20.08h-17.98l-3.49-10.17v10.17Z"/><path class="cls-4" d="M160.55,460.79c0-2.57.46-4.89,1.39-6.96.92-2.07,2.2-3.83,3.83-5.29,1.63-1.46,3.55-2.58,5.78-3.39,2.23-.8,4.64-1.21,7.24-1.21s5.02.4,7.24,1.21,4.15,1.93,5.78,3.39c1.63,1.46,2.9,3.22,3.83,5.29.92,2.07,1.39,4.39,1.39,6.96s-.46,4.9-1.39,6.99c-.92,2.09-2.2,3.86-3.83,5.32-1.63,1.46-3.55,2.58-5.78,3.39s-4.64,1.21-7.24,1.21-5.02-.39-7.24-1.18c-2.23-.79-4.15-1.92-5.78-3.39-1.63-1.47-2.9-3.25-3.83-5.34-.92-2.09-1.39-4.42-1.39-6.99ZM185.87,459.71l-.92-1.28c-.62.38-1.43.73-2.44,1.05s-2.09.61-3.24.85c-1.15.24-2.3.43-3.47.57-1.16.14-2.23.21-3.18.21v1.44c.96,0,2.05-.06,3.29-.18,1.23-.12,2.46-.3,3.7-.54,1.23-.24,2.41-.53,3.52-.87,1.11-.34,2.03-.75,2.75-1.23Z"/><path class="cls-4" d="M212.48,444.97l1.8,1.8c1.75-.96,3.45-1.67,5.11-2.13,1.66-.46,3.36-.69,5.11-.69,1.37,0,2.65.25,3.85.74,1.2.5,2.24,1.21,3.13,2.13.89.92,1.6,2.06,2.13,3.42.53,1.35.8,2.9.8,4.65v21.47h-16.44v-18.08l-1.9.72v17.36h-16.44v-31.38h12.84Z"/><path class="cls-4" d="M261.22,459.2c-.65,0-1.38-.03-2.18-.08-.8-.05-1.63-.13-2.47-.23s-1.69-.22-2.54-.36c-.86-.14-1.64-.29-2.36-.46v1.49c.65.17,1.4.32,2.23.44s1.7.23,2.57.33c.87.1,1.72.18,2.54.23.82.05,1.56.08,2.21.08v15.62c-1.68.48-3.27.78-4.78.9-1.51.12-2.86.18-4.06.18-2.05,0-3.94-.28-5.65-.85-1.71-.56-3.18-1.38-4.42-2.44-1.23-1.06-2.19-2.34-2.88-3.85-.69-1.51-1.03-3.22-1.03-5.14v-7.19h-2.16v-12.89h1.8v-8.78h17.46v8.78h5.7v14.23Z"/><path class="cls-4" d="M263.28,467.88c0-2.67.52-4.74,1.57-6.21,1.04-1.47,2.7-2.6,4.96-3.39.86-.31,1.83-.58,2.93-.82,1.1-.24,2.24-.44,3.44-.62,1.2-.17,2.41-.31,3.65-.41,1.23-.1,2.41-.15,3.54-.15v-1.64c-2.6,0-5.42.24-8.45.72-3.03.48-6.02,1.22-8.96,2.21v-10.68c2.19-.99,4.63-1.73,7.32-2.21,2.69-.48,5.85-.72,9.48-.72,2.67,0,4.95.24,6.83.72,1.88.48,3.42,1.28,4.62,2.39,1.2,1.11,2.07,2.58,2.62,4.39.55,1.82.82,4.04.82,6.68v18.23h-12.84v-1.75c0-2.02-.27-3.95-.82-5.78-.55-1.83-1.25-3.35-2.11-4.55l-1.54.57c.45.51.84,1.17,1.18,1.98.34.8.63,1.7.87,2.67s.43,1.99.57,3.03c.14,1.04.21,2.03.21,2.95-1.33.48-2.84.87-4.52,1.18-1.68.31-3.63.46-5.86.46-3.19,0-5.57-.85-7.14-2.54-1.58-1.69-2.36-3.93-2.36-6.7Z"/><path class="cls-4" d="M318.29,476.35h-17.46v-40.17h17.46v15.2l-2.83,7.09,1.39.36,5.55-13.87h17.36l-7.65,15.67,7.65,15.72h-17.98l-3.49-7.35v7.35Z"/><path class="cls-4" d="M365.24,459.2c-.65,0-1.38-.03-2.18-.08-.8-.05-1.63-.13-2.47-.23s-1.69-.22-2.54-.36c-.86-.14-1.64-.29-2.36-.46v1.49c.65.17,1.4.32,2.23.44s1.7.23,2.57.33c.87.1,1.72.18,2.54.23.82.05,1.56.08,2.21.08v15.62c-1.68.48-3.27.78-4.78.9-1.51.12-2.86.18-4.06.18-2.05,0-3.94-.28-5.65-.85-1.71-.56-3.18-1.38-4.42-2.44-1.23-1.06-2.19-2.34-2.88-3.85-.69-1.51-1.03-3.22-1.03-5.14v-7.19h-2.16v-12.89h1.8v-8.78h17.46v8.78h5.7v14.23Z"/><path class="cls-4" d="M401.3,476.35h-17.46v-40.17h17.46v8.27c-1.23.48-2.47.98-3.72,1.51-1.25.53-2.49,1.19-3.72,1.98l.51,1.64c1.16-.72,2.51-1.42,4.03-2.11,1.52-.68,3.1-1.29,4.73-1.82,1.63-.53,3.23-.95,4.8-1.26,1.57-.31,3.03-.46,4.37-.46,1.47,0,2.74.16,3.8.49,1.06.33,1.93.87,2.62,1.62.68.75,1.18,1.72,1.49,2.9.31,1.18.46,2.65.46,4.39v23.01h-17.46v-16.54l-1.9.72v15.82Z"/><path class="cls-4" d="M422.77,460.79c0-2.57.43-4.9,1.28-6.99.86-2.09,2.1-3.86,3.72-5.32,1.63-1.46,3.62-2.58,5.98-3.36,2.36-.79,5.07-1.18,8.12-1.18,3.97,0,7.23.44,9.79,1.31s4.55,2.23,5.98,4.08v15.87c-3.39,0-6.71-.13-9.96-.38-3.25-.26-6.49-.71-9.71-1.36v1.8c1.47.38,3.03.68,4.67.9,1.64.22,3.31.39,5.01.51,1.69.12,3.39.21,5.08.26,1.69.05,3.33.08,4.91.08v5.55c-2.29,1.81-4.87,3.04-7.73,3.67-2.86.63-6.12.95-9.79.95-2.6,0-4.97-.37-7.11-1.1-2.14-.74-3.96-1.81-5.47-3.21-1.51-1.4-2.68-3.12-3.52-5.14-.84-2.02-1.26-4.33-1.26-6.93ZM437.97,454.11v1.49c.65.17,1.39.32,2.23.44.84.12,1.7.23,2.57.33.87.1,1.72.18,2.54.23.82.05,1.56.08,2.21.08v-1.44c-.65,0-1.38-.03-2.18-.08-.81-.05-1.63-.13-2.47-.23-.84-.1-1.69-.22-2.54-.36-.86-.14-1.64-.29-2.36-.46Z"/><path class="cls-4" d="M477.31,447.07c.82-.55,1.75-1.03,2.8-1.44,1.04-.41,2.12-.74,3.24-.98,1.11-.24,2.22-.38,3.31-.41,1.1-.03,2.14.04,3.13.21v13.1c-.92,0-1.92.02-2.98.05-1.06.03-2.14.12-3.24.26s-2.18.33-3.26.59c-1.08.26-2.1.61-3.06,1.05v16.85h-16.44v-31.38h14.69l1.8,2.11Z"/><path class="cls-6" d="M403.28,390.5h-180.78c-16.62,0-30-13.6-30-30.22l-7-149.78c0-16.62,20.6-31,37.22-31h180.55c16.62,0,30.22,13.6,30.22,30.22v139.78c0,16.62-13.6,41-30.22,41Z"/><path class="cls-6" d="M403.28,391h-180.78c-16.82,0-30.5-13.78-30.5-30.72l-7-149.75c0-16.99,20.74-31.52,37.72-31.52h180.55c16.94,0,30.72,13.78,30.72,30.72v139.78c0,16.32-13.19,41.5-30.72,41.5ZM222.72,180c-16.53,0-36.72,14.07-36.72,30.5l7,149.75c0,16.41,13.23,29.75,29.5,29.75h180.78c16.41,0,29.72-24.51,29.72-40.5v-139.78c0-16.39-13.33-29.72-29.72-29.72h-180.55Z"/><rect class="cls-5" x="135.5" y="213.5" width="50" height="100" rx="7" ry="7"/><path class="cls-6" d="M178.5,314h-36c-4.14,0-7.5-3.36-7.5-7.5v-86c0-4.14,3.36-7.5,7.5-7.5h36c4.14,0,7.5,3.36,7.5,7.5v86c0,4.14-3.36,7.5-7.5,7.5ZM142.5,214c-3.58,0-6.5,2.92-6.5,6.5v86c0,3.58,2.92,6.5,6.5,6.5h36c3.58,0,6.5-2.92,6.5-6.5v-86c0-3.58-2.92-6.5-6.5-6.5h-36Z"/><rect class="cls-5" x="428.5" y="213.5" width="50" height="100" rx="7" ry="7"/><path class="cls-6" d="M471.5,314h-36c-4.14,0-7.5-3.36-7.5-7.5v-86c0-4.14,3.36-7.5,7.5-7.5h36c4.14,0,7.5,3.36,7.5,7.5v86c0,4.14-3.36,7.5-7.5,7.5ZM435.5,214c-3.58,0-6.5,2.92-6.5,6.5v86c0,3.58,2.92,6.5,6.5,6.5h36c3.58,0,6.5-2.92,6.5-6.5v-86c0-3.58-2.92-6.5-6.5-6.5h-36Z"/><rect class="cls-3" x="185.5" y="203.5" width="227" height="186" rx="7" ry="7"/><path class="cls-6" d="M405.5,392h-213c-5.24,0-9.5-4.26-9.5-9.5v-172c0-5.24,4.26-9.5,9.5-9.5h213c5.24,0,9.5,4.26,9.5,9.5v172c0,5.24-4.26,9.5-9.5,9.5ZM192.5,206c-2.48,0-4.5,2.02-4.5,4.5v172c0,2.48,2.02,4.5,4.5,4.5h213c2.48,0,4.5-2.02,4.5-4.5v-172c0-2.48-2.02-4.5-4.5-4.5h-213Z"/><circle class="cls-6" cx="251.5" cy="298.5" r="9"/><path class="cls-6" d="M251.5,310c-6.34,0-11.5-5.16-11.5-11.5s5.16-11.5,11.5-11.5,11.5,5.16,11.5,11.5-5.16,11.5-11.5,11.5ZM251.5,292c-3.58,0-6.5,2.92-6.5,6.5s2.92,6.5,6.5,6.5,6.5-2.92,6.5-6.5-2.92-6.5-6.5-6.5Z"/><polygon class="cls-6" points="364.76 300.99 333.18 298.33 359.74 282.84 362.26 287.16 349.37 294.67 365.18 296.01 364.76 300.99"/><path class="cls-6" d="M293.75,344.72c-7.31,0-12.53-6.94-12.75-7.23l4.02-2.98-2.01,1.49,2-1.5c.04.05,3.97,5.22,8.74,5.22,0,0,.02,0,.03,0,2.71-.01,5.37-1.76,7.9-5.2l.11-.14c.13-.15,3.28-3.77,8.73-3.99,4.72-.19,9.53,2.15,14.34,6.95l-3.53,3.54c-3.75-3.74-7.31-5.58-10.52-5.5-3.01.09-4.86,1.87-5.18,2.21-3.51,4.72-7.5,7.12-11.86,7.13h-.02Z"/></svg>