<svg width="91" height="91" viewBox="0 0 91 91" fill="none" xmlns="http://www.w3.org/2000/svg">
<path d="M51.8566 87.64H10.0709C8.36594 87.64 6.73081 86.9627 5.52522 85.7571C4.31963 84.5515 3.64233 82.9164 3.64233 81.2114V10.4971C3.64233 8.79214 4.31963 7.15701 5.52522 5.95142C6.73081 4.74583 8.36594 4.06853 10.0709 4.06853H58.2852" stroke="#FFE524" stroke-width="4" stroke-linecap="round" stroke-linejoin="round"/>
<path d="M67.928 23.3542L77.5708 4.06853L87.2137 23.3542V77.9971C87.2137 80.5545 86.1978 83.0072 84.3894 84.8156C82.581 86.624 80.1283 87.64 77.5708 87.64C75.0134 87.64 72.5607 86.624 70.7523 84.8156C68.9439 83.0072 67.928 80.5545 67.928 77.9971V23.3542Z" stroke="#FFE524" stroke-width="4" stroke-linecap="round" stroke-linejoin="round"/>
<path d="M67.928 61.9257H87.2137" stroke="#FFE524" stroke-width="4" stroke-linecap="round" stroke-linejoin="round"/>
<path d="M22.928 4.06853V87.64" stroke="#FFE524" stroke-width="4" stroke-linecap="round" stroke-linejoin="round"/>
<path d="M38.9995 26.5685H51.8567" stroke="#FFE524" stroke-width="4" stroke-linecap="round" stroke-linejoin="round"/>
</svg>
