<?xml version="1.0" encoding="UTF-8"?><svg id="Layer_6" xmlns="http://www.w3.org/2000/svg" viewBox="0 0 330 282"><defs><style>.cls-1{fill:none;stroke:#ecd14b;stroke-miterlimit:10;stroke-width:8px;}.cls-2{fill:#d8b627;}</style></defs><rect class="cls-1" x="31" y="62" width="227" height="186" rx="7" ry="7"/><circle class="cls-2" cx="97" cy="157" r="9"/><circle class="cls-2" cx="193" cy="157" r="9"/><path class="cls-2" d="M139.25,203.22c-7.31,0-12.53-6.94-12.75-7.23l4.02-2.98-2.01,1.49,2-1.5c.04.05,3.97,5.22,8.74,5.22,0,0,.02,0,.03,0,2.71-.01,5.37-1.76,7.9-5.2l.11-.14c.13-.15,3.28-3.77,8.73-3.99,4.71-.19,9.53,2.15,14.34,6.95l-3.53,3.54c-3.75-3.74-7.3-5.58-10.52-5.5-3.01.09-4.86,1.87-5.18,2.21-3.51,4.72-7.5,7.12-11.86,7.13h-.02Z"/></svg>