<svg width="88" height="88" viewBox="0 0 88 88" fill="none" xmlns="http://www.w3.org/2000/svg">
<path d="M20.7842 67.2623H11.4628C9.13254 67.0683 6.96033 66.0056 5.37698 64.2849C3.79362 62.5642 2.91479 60.3113 2.91479 57.973C2.91479 55.6347 3.79362 53.3818 5.37698 51.6611C6.96033 49.9405 9.13254 48.8778 11.4628 48.6837H26.2485L35.7628 39.1694L9.66279 23.098C7.65347 21.8559 6.19069 19.8972 5.57015 17.6179C4.9496 15.3386 5.21759 12.9087 6.31993 10.8194C6.80655 9.62375 7.53299 8.54044 8.45444 7.63633C9.37588 6.73222 10.4728 6.02649 11.6775 5.56267C12.8822 5.09886 14.1692 4.88679 15.4591 4.93955C16.7489 4.99231 18.0143 5.30878 19.1771 5.86945L53.2485 21.6194L69.7056 4.96945C71.4788 3.19629 73.8837 2.20013 76.3914 2.20013C78.899 2.20013 81.3039 3.19629 83.0771 4.96945C84.8502 6.74261 85.8464 9.14753 85.8464 11.6552C85.8464 14.1628 84.8502 16.5677 83.0771 18.3409L66.4271 34.798L82.1771 69.1909C82.6952 70.3362 82.978 71.5739 83.0086 72.8306C83.0392 74.0873 82.8171 75.3373 82.3554 76.5065C81.8937 77.6757 81.2019 78.7402 80.321 79.6369C79.44 80.5336 78.3879 81.2442 77.2271 81.7266C75.1378 82.8289 72.7079 83.0969 70.4286 82.4764C68.1493 81.8558 66.1906 80.3931 64.9485 78.3837L48.8771 52.2837L39.3628 61.798V76.5837C39.1688 78.914 38.106 81.0862 36.3854 82.6696C34.6647 84.2529 32.4118 85.1317 30.0735 85.1317C27.7352 85.1317 25.4823 84.2529 23.7616 82.6696C22.041 81.0862 20.9782 78.914 20.7842 76.5837V67.2623Z" stroke="#FFE524" stroke-width="4" stroke-linecap="round" stroke-linejoin="round"/>
</svg>
