<?xml version="1.0" encoding="UTF-8"?>
<svg xmlns="http://www.w3.org/2000/svg" version="1.1" viewBox="0 0 88 88">
  <defs>
    <style>
      .cls-1 {
        fill: none;
        stroke: #ebcd38;
        stroke-linecap: round;
        stroke-linejoin: round;
        stroke-width: 4px;
      }
    </style>
  </defs>
  <!-- Generator: Adobe Illustrator 28.6.0, SVG Export Plug-In . SVG Version: 1.2.0 Build 709)  -->
  <g>
    <g id="Layer_1">
      <path class="cls-1" d="M20.8,67.3h-9.3c-2.3-.2-4.5-1.3-6.1-3-1.6-1.7-2.5-4-2.5-6.3s.9-4.6,2.5-6.3c1.6-1.7,3.8-2.8,6.1-3h14.8l9.5-9.5L9.7,23.1c-2-1.2-3.5-3.2-4.1-5.5-.6-2.3-.4-4.7.7-6.8.5-1.2,1.2-2.3,2.1-3.2.9-.9,2-1.6,3.2-2.1,1.2-.5,2.5-.7,3.8-.6,1.3,0,2.6.4,3.7.9l34.1,15.7,16.5-16.6c1.8-1.8,4.2-2.8,6.7-2.8s4.9,1,6.7,2.8c1.8,1.8,2.8,4.2,2.8,6.7s-1,4.9-2.8,6.7l-16.7,16.5,15.8,34.4c.5,1.1.8,2.4.8,3.6,0,1.3-.2,2.5-.7,3.7s-1.2,2.2-2,3.1c-.9.9-1.9,1.6-3.1,2.1-2.1,1.1-4.5,1.4-6.8.7-2.3-.6-4.2-2.1-5.5-4.1l-16.1-26.1-9.5,9.5v14.8c-.2,2.3-1.3,4.5-3,6.1-1.7,1.6-4,2.5-6.3,2.5s-4.6-.9-6.3-2.5c-1.7-1.6-2.8-3.8-3-6.1v-9.3Z"/>
    </g>
  </g>
</svg>