<svg width="66" height="66" viewBox="0 0 66 66" fill="none" xmlns="http://www.w3.org/2000/svg">
<circle cx="33.2256" cy="33.0667" r="32.6748" fill="#F4B0B5"/>
<path d="M18.392 34.1113H16.248C16.0773 34.1113 15.7467 34.1007 15.256 34.0793C14.7867 34.0367 14.2747 33.9833 13.72 33.9193C13.1867 33.834 12.728 33.7167 12.344 33.5673C11.96 33.418 11.768 33.2367 11.768 33.0233V24.9913C11.768 24.7567 11.96 24.5753 12.344 24.4473C12.728 24.298 13.1867 24.1913 13.72 24.1273C14.2747 24.0633 14.7867 24.0207 15.256 23.9993C15.7467 23.9567 16.0773 23.9353 16.248 23.9353H27.128C27.2987 23.9353 27.6187 23.9567 28.088 23.9993C28.5787 24.0207 29.0907 24.0633 29.624 24.1273C30.1787 24.1913 30.648 24.298 31.032 24.4473C31.416 24.5753 31.608 24.7567 31.608 24.9913V33.0233C31.608 33.1727 31.48 33.3113 31.224 33.4393C30.9893 33.5673 30.7227 33.674 30.424 33.7593C30.1467 33.8447 29.9547 33.9087 29.848 33.9513L24.28 35.8073H27.448C27.6187 35.8073 27.9387 35.8287 28.408 35.8713C28.8987 35.8927 29.4107 35.946 29.944 36.0313C30.4987 36.0953 30.968 36.202 31.352 36.3513C31.736 36.4793 31.928 36.6607 31.928 36.8953V44.1273C31.928 44.362 31.736 44.554 31.352 44.7033C30.968 44.8313 30.4987 44.938 29.944 45.0233C29.4107 45.0873 28.8987 45.1407 28.408 45.1833C27.9387 45.2047 27.6187 45.2153 27.448 45.2153H15.928C15.7573 45.2153 15.4267 45.2047 14.936 45.1833C14.4667 45.1407 13.9547 45.0873 13.4 45.0233C12.8667 44.938 12.408 44.8313 12.024 44.7033C11.64 44.554 11.448 44.362 11.448 44.1273V36.7673C11.448 36.618 11.5653 36.4793 11.8 36.3513C12.056 36.2233 12.3227 36.1167 12.6 36.0313C12.8987 35.9247 13.1013 35.8607 13.208 35.8393L18.392 34.1113ZM20.728 33.3113L22.648 32.6713V26.0793H20.728V33.3113ZM20.408 43.0713H22.968V36.2553L20.408 37.1193V43.0713ZM40.7983 34.1113H38.6543C38.4836 34.1113 38.1529 34.1007 37.6623 34.0793C37.1929 34.0367 36.6809 33.9833 36.1263 33.9193C35.5929 33.834 35.1343 33.7167 34.7502 33.5673C34.3662 33.418 34.1743 33.2367 34.1743 33.0233V24.9913C34.1743 24.7567 34.3662 24.5753 34.7502 24.4473C35.1343 24.298 35.5929 24.1913 36.1263 24.1273C36.6809 24.0633 37.1929 24.0207 37.6623 23.9993C38.1529 23.9567 38.4836 23.9353 38.6543 23.9353H49.5343C49.7049 23.9353 50.0249 23.9567 50.4943 23.9993C50.9849 24.0207 51.4969 24.0633 52.0303 24.1273C52.5849 24.1913 53.0543 24.298 53.4383 24.4473C53.8223 24.5753 54.0143 24.7567 54.0143 24.9913V33.0233C54.0143 33.1727 53.8863 33.3113 53.6302 33.4393C53.3956 33.5673 53.1289 33.674 52.8303 33.7593C52.5529 33.8447 52.3609 33.9087 52.2543 33.9513L46.6863 35.8073H49.8543C50.0249 35.8073 50.3449 35.8287 50.8142 35.8713C51.3049 35.8927 51.8169 35.946 52.3503 36.0313C52.9049 36.0953 53.3743 36.202 53.7583 36.3513C54.1423 36.4793 54.3343 36.6607 54.3343 36.8953V44.1273C54.3343 44.362 54.1423 44.554 53.7583 44.7033C53.3743 44.8313 52.9049 44.938 52.3503 45.0233C51.8169 45.0873 51.3049 45.1407 50.8142 45.1833C50.3449 45.2047 50.0249 45.2153 49.8543 45.2153H38.3342C38.1636 45.2153 37.8329 45.2047 37.3423 45.1833C36.8729 45.1407 36.3609 45.0873 35.8063 45.0233C35.2729 44.938 34.8142 44.8313 34.4302 44.7033C34.0462 44.554 33.8542 44.362 33.8542 44.1273V36.7673C33.8542 36.618 33.9716 36.4793 34.2062 36.3513C34.4622 36.2233 34.7289 36.1167 35.0062 36.0313C35.3049 35.9247 35.5076 35.8607 35.6142 35.8393L40.7983 34.1113ZM43.1343 33.3113L45.0543 32.6713V26.0793H43.1343V33.3113ZM42.8142 43.0713H45.3743V36.2553L42.8142 37.1193V43.0713Z" fill="#3D3935"/>
</svg>
