<svg width="67" height="66" viewBox="0 0 67 66" fill="none" xmlns="http://www.w3.org/2000/svg">
<circle cx="33.5388" cy="32.9348" r="32.6748" fill="#3D3935"/>
<path d="M18.7051 33.9795H16.5611C16.3905 33.9795 16.0598 33.9688 15.5691 33.9475C15.0998 33.9048 14.5878 33.8515 14.0331 33.7875C13.4998 33.7022 13.0411 33.5848 12.6571 33.4355C12.2731 33.2862 12.0811 33.1048 12.0811 32.8915V24.8595C12.0811 24.6248 12.2731 24.4435 12.6571 24.3155C13.0411 24.1662 13.4998 24.0595 14.0331 23.9955C14.5878 23.9315 15.0998 23.8888 15.5691 23.8675C16.0598 23.8248 16.3905 23.8035 16.5611 23.8035H27.4411C27.6118 23.8035 27.9318 23.8248 28.4011 23.8675C28.8918 23.8888 29.4038 23.9315 29.9371 23.9955C30.4918 24.0595 30.9611 24.1662 31.3451 24.3155C31.7291 24.4435 31.9211 24.6248 31.9211 24.8595V32.8915C31.9211 33.0408 31.7931 33.1795 31.5371 33.3075C31.3025 33.4355 31.0358 33.5422 30.7371 33.6275C30.4598 33.7128 30.2678 33.7768 30.1611 33.8195L24.5931 35.6755H27.7611C27.9318 35.6755 28.2518 35.6968 28.7211 35.7395C29.2118 35.7608 29.7238 35.8142 30.2571 35.8995C30.8118 35.9635 31.2811 36.0702 31.6651 36.2195C32.0491 36.3475 32.2411 36.5288 32.2411 36.7635V43.9955C32.2411 44.2302 32.0491 44.4222 31.6651 44.5715C31.2811 44.6995 30.8118 44.8062 30.2571 44.8915C29.7238 44.9555 29.2118 45.0088 28.7211 45.0515C28.2518 45.0728 27.9318 45.0835 27.7611 45.0835H16.2411C16.0705 45.0835 15.7398 45.0728 15.2491 45.0515C14.7798 45.0088 14.2678 44.9555 13.7131 44.8915C13.1798 44.8062 12.7211 44.6995 12.3371 44.5715C11.9531 44.4222 11.7611 44.2302 11.7611 43.9955V36.6355C11.7611 36.4862 11.8785 36.3475 12.1131 36.2195C12.3691 36.0915 12.6358 35.9848 12.9131 35.8995C13.2118 35.7928 13.4145 35.7288 13.5211 35.7075L18.7051 33.9795ZM21.0411 33.1795L22.9611 32.5395V25.9475H21.0411V33.1795ZM20.7211 42.9395H23.2811V36.1235L20.7211 36.9875V42.9395ZM41.1114 33.9795H38.9674C38.7967 33.9795 38.4661 33.9688 37.9754 33.9475C37.5061 33.9048 36.9941 33.8515 36.4394 33.7875C35.9061 33.7022 35.4474 33.5848 35.0634 33.4355C34.6794 33.2862 34.4874 33.1048 34.4874 32.8915V24.8595C34.4874 24.6248 34.6794 24.4435 35.0634 24.3155C35.4474 24.1662 35.9061 24.0595 36.4394 23.9955C36.9941 23.9315 37.5061 23.8888 37.9754 23.8675C38.4661 23.8248 38.7967 23.8035 38.9674 23.8035H49.8474C50.0181 23.8035 50.3381 23.8248 50.8074 23.8675C51.2981 23.8888 51.8101 23.9315 52.3434 23.9955C52.8981 24.0595 53.3674 24.1662 53.7514 24.3155C54.1354 24.4435 54.3274 24.6248 54.3274 24.8595V32.8915C54.3274 33.0408 54.1994 33.1795 53.9434 33.3075C53.7087 33.4355 53.4421 33.5422 53.1434 33.6275C52.8661 33.7128 52.6741 33.7768 52.5674 33.8195L46.9994 35.6755H50.1674C50.3381 35.6755 50.6581 35.6968 51.1274 35.7395C51.6181 35.7608 52.1301 35.8142 52.6634 35.8995C53.2181 35.9635 53.6874 36.0702 54.0714 36.2195C54.4554 36.3475 54.6474 36.5288 54.6474 36.7635V43.9955C54.6474 44.2302 54.4554 44.4222 54.0714 44.5715C53.6874 44.6995 53.2181 44.8062 52.6634 44.8915C52.1301 44.9555 51.6181 45.0088 51.1274 45.0515C50.6581 45.0728 50.3381 45.0835 50.1674 45.0835H38.6474C38.4767 45.0835 38.1461 45.0728 37.6554 45.0515C37.1861 45.0088 36.6741 44.9555 36.1194 44.8915C35.5861 44.8062 35.1274 44.6995 34.7434 44.5715C34.3594 44.4222 34.1674 44.2302 34.1674 43.9955V36.6355C34.1674 36.4862 34.2847 36.3475 34.5194 36.2195C34.7754 36.0915 35.0421 35.9848 35.3194 35.8995C35.6181 35.7928 35.8207 35.7288 35.9274 35.7075L41.1114 33.9795ZM43.4474 33.1795L45.3674 32.5395V25.9475H43.4474V33.1795ZM43.1274 42.9395H45.6874V36.1235L43.1274 36.9875V42.9395Z" fill="#FF99A1"/>
</svg>
