<?xml version="1.0" encoding="UTF-8"?>
<svg xmlns="http://www.w3.org/2000/svg" version="1.1" viewBox="0 0 46 43">
  <defs>
    <style>
      .cls-1 {
        fill: #ebcd38;
      }
    </style>
  </defs>
  <!-- Generator: Adobe Illustrator 28.6.0, SVG Export Plug-In . SVG Version: 1.2.0 Build 709)  -->
  <g>
    <g id="Layer_1">
      <path class="cls-1" d="M43.5,3.1H2.5c-1.1,0-2,.9-2,2v32c0,1.1.9,2,2,2h41c1.1,0,2-.9,2-2V5.1c0-1.1-.9-2-2-2ZM16.3,31.8h-4.8v-14.6h4.8v14.6ZM16.4,14.5c0,.3,0,.6,0,1-.4,0-.8.1-1.2.2-.4,0-.8,0-1.2,0s-.8,0-1.2,0c-.4,0-.8,0-1.2-.2,0-.3,0-.6,0-.9,0-.3,0-.6,0-.9s0-.5,0-.8c0-.3,0-.6,0-1,.4,0,.8-.2,1.2-.2.4,0,.8,0,1.2,0s.8,0,1.1,0c.4,0,.8,0,1.2.2,0,.7,0,1.3,0,1.8s0,.6,0,.9ZM34.1,31.8h-4.8v-7.3c0-1.1-.2-1.9-.5-2.4-.3-.5-1-.7-1.9-.7s-1.5.2-1.9.7c-.4.4-.5,1.2-.6,2.2v7.5h-4.8v-14.6h4.6l.2,2.7h0c.3-.9.8-1.6,1.5-2.1.7-.5,1.7-.8,3-.8s3,.5,3.8,1.5c.8,1,1.3,2.7,1.3,5.1v8.2Z"/>
    </g>
  </g>
</svg>