<svg width="59" height="59" viewBox="0 0 59 59" fill="none" xmlns="http://www.w3.org/2000/svg">
<g clip-path="url(#clip0_2003_2)">
<path d="M54.6446 0H4.35535C3.20024 0 2.09244 0.458866 1.27565 1.27565C0.458866 2.09244 0 3.20024 0 4.35535V54.6446C0 55.7998 0.458866 56.9076 1.27565 57.7244C2.09244 58.5411 3.20024 59 4.35535 59H54.6446C55.7998 59 56.9076 58.5411 57.7244 57.7244C58.5411 56.9076 59 55.7998 59 54.6446V4.35535C59 3.20024 58.5411 2.09244 57.7244 1.27565C56.9076 0.458866 55.7998 0 54.6446 0ZM17.5853 50.2606H8.71479V22.084H17.5853V50.2606ZM13.1439 18.1794C12.1377 18.1737 11.1557 17.8701 10.3219 17.3069C9.48807 16.7437 8.83977 15.9461 8.45882 15.0147C8.07787 14.0834 7.98134 13.0601 8.18141 12.074C8.38148 11.0879 8.86918 10.1831 9.58296 9.47388C10.2967 8.76466 11.2046 8.28278 12.192 8.08905C13.1794 7.89532 14.2021 7.99842 15.1309 8.38534C16.0598 8.77226 16.8532 9.42566 17.4111 10.2631C17.9689 11.1005 18.2662 12.0844 18.2654 13.0906C18.2749 13.7643 18.1487 14.433 17.8942 15.0568C17.6398 15.6807 17.2624 16.2469 16.7844 16.7217C16.3065 17.1966 15.7379 17.5704 15.1124 17.8208C14.487 18.0713 13.8175 18.1932 13.1439 18.1794ZM50.2811 50.2852H41.4147V34.8919C41.4147 30.3522 39.4849 28.951 36.9938 28.951C34.3634 28.951 31.7822 30.934 31.7822 35.0067V50.2852H22.9117V22.1045H31.4421V26.0092H31.5568C32.4131 24.276 35.4123 21.3138 39.9889 21.3138C44.9383 21.3138 50.2852 24.2515 50.2852 32.8556L50.2811 50.2852Z" fill="#0A66C2"/>
</g>
<defs>
<clipPath id="clip0_2003_2">
<rect width="59" height="59" fill="white"/>
</clipPath>
</defs>
</svg>
