<svg width="101" height="101" viewBox="0 0 101 101" fill="none" xmlns="http://www.w3.org/2000/svg">
<path d="M32.6972 14.2206C34.9494 16.4203 36.2886 19.3889 36.4472 22.5331L47.8847 11.1581C48.2775 10.7177 48.759 10.3653 49.2976 10.124C49.8361 9.8827 50.4196 9.75797 51.0097 9.75797C51.5999 9.75797 52.1833 9.8827 52.7219 10.124C53.2604 10.3653 53.7419 10.7177 54.1347 11.1581L63.3847 20.7831C62.0709 21.4201 60.8681 22.2642 59.8222 23.2831C57.5961 25.7312 56.398 28.9424 56.4765 32.2504C56.555 35.5584 57.9041 38.7092 60.2439 41.0489C62.5836 43.3887 65.7344 44.7378 69.0424 44.8163C72.3504 44.8948 75.5616 43.6967 78.0097 41.4706C79.0286 40.4247 79.8727 39.2219 80.5097 37.9081L90.2597 47.5331C90.7001 47.9259 91.0525 48.4074 91.2938 48.9459C91.5351 49.4845 91.6598 50.0679 91.6598 50.6581C91.6598 51.2482 91.5351 51.8317 91.2938 52.3702C91.0525 52.9088 90.7001 53.3903 90.2597 53.7831L78.8847 64.9706C81.3484 65.1196 83.7167 65.977 85.7047 67.4398C87.6927 68.9025 89.216 70.9084 90.0912 73.2162C90.9665 75.524 91.1565 78.0355 90.6385 80.4488C90.1205 82.862 88.9165 85.0742 87.1712 86.8195C85.4259 88.5648 83.2136 89.7688 80.8004 90.2869C78.3872 90.8049 75.8757 90.6148 73.5679 89.7396C71.2601 88.8643 69.2542 87.3411 67.7914 85.3531C66.3286 83.365 65.4712 80.9968 65.3222 78.5331L53.8847 89.9081C53.4919 90.3485 53.0104 90.7009 52.4719 90.9422C51.9333 91.1835 51.3499 91.3082 50.7597 91.3082C50.1696 91.3082 49.5861 91.1835 49.0476 90.9422C48.509 90.7009 48.0275 90.3485 47.6347 89.9081L38.3847 80.2831C39.6985 79.646 40.9014 78.8019 41.9472 77.7831C44.359 75.3547 45.7074 72.0677 45.6957 68.6451C45.684 65.2226 44.3131 61.9449 41.8847 59.5331C39.4563 57.1213 36.1693 55.7729 32.7468 55.7846C29.3242 55.7963 26.0465 57.1672 23.6347 59.5956C22.6159 60.6414 21.7718 61.8443 21.1347 63.1581L11.5097 53.5331C11.0693 53.1403 10.7169 52.6588 10.4756 52.1202C10.2344 51.5817 10.1096 50.9982 10.1096 50.4081C10.1096 49.8179 10.2344 49.2345 10.4756 48.6959C10.7169 48.1574 11.0693 47.6759 11.5097 47.2831L22.8847 36.0956C19.7405 35.937 16.772 34.5978 14.5722 32.3456C12.1687 29.9421 10.8184 26.6822 10.8184 23.2831C10.8184 19.884 12.1687 16.6241 14.5722 14.2206C16.9758 11.8171 20.2356 10.4668 23.6347 10.4668C27.0338 10.4668 30.2937 11.8171 32.6972 14.2206V14.2206Z" stroke="#FFE524" stroke-width="4" stroke-linecap="round" stroke-linejoin="round"/>
</svg>
