<?xml version="1.0" encoding="UTF-8"?>
<svg xmlns="http://www.w3.org/2000/svg" version="1.1" viewBox="0 0 101 101">
  <defs>
    <style>
      .cls-1 {
        fill: none;
        stroke: #ebcd38;
        stroke-linecap: round;
        stroke-linejoin: round;
        stroke-width: 4px;
      }
    </style>
  </defs>
  <!-- Generator: Adobe Illustrator 28.6.0, SVG Export Plug-In . SVG Version: 1.2.0 Build 709)  -->
  <g>
    <g id="Layer_1">
      <path class="cls-1" d="M32.7,14.2c2.3,2.2,3.6,5.2,3.8,8.3l11.4-11.4c.4-.4.9-.8,1.4-1,.5-.2,1.1-.4,1.7-.4s1.2.1,1.7.4c.5.2,1,.6,1.4,1l9.2,9.6c-1.3.6-2.5,1.5-3.6,2.5-2.2,2.4-3.4,5.7-3.3,9,0,3.3,1.4,6.5,3.8,8.8,2.3,2.3,5.5,3.7,8.8,3.8,3.3,0,6.5-1.1,9-3.3,1-1,1.9-2.2,2.5-3.6l9.8,9.6c.4.4.8.9,1,1.4.2.5.4,1.1.4,1.7s-.1,1.2-.4,1.7c-.2.5-.6,1-1,1.4l-11.4,11.2c2.5.1,4.8,1,6.8,2.5,2,1.5,3.5,3.5,4.4,5.8.9,2.3,1.1,4.8.5,7.2-.5,2.4-1.7,4.6-3.5,6.4-1.7,1.7-4,2.9-6.4,3.5-2.4.5-4.9.3-7.2-.5-2.3-.9-4.3-2.4-5.8-4.4-1.5-2-2.3-4.4-2.5-6.8l-11.4,11.4c-.4.4-.9.8-1.4,1-.5.2-1.1.4-1.7.4s-1.2-.1-1.7-.4c-.5-.2-1-.6-1.4-1l-9.2-9.6c1.3-.6,2.5-1.5,3.6-2.5,2.4-2.4,3.8-5.7,3.7-9.1,0-3.4-1.4-6.7-3.8-9.1-2.4-2.4-5.7-3.8-9.1-3.7-3.4,0-6.7,1.4-9.1,3.8-1,1-1.9,2.2-2.5,3.6l-9.6-9.6c-.4-.4-.8-.9-1-1.4-.2-.5-.4-1.1-.4-1.7s.1-1.2.4-1.7c.2-.5.6-1,1-1.4l11.4-11.2c-3.1-.2-6.1-1.5-8.3-3.8-2.4-2.4-3.8-5.7-3.8-9.1s1.4-6.7,3.8-9.1c2.4-2.4,5.7-3.8,9.1-3.8s6.7,1.4,9.1,3.8h0Z"/>
    </g>
  </g>
</svg>