<svg width="88" height="88" viewBox="0 0 88 88" fill="none" xmlns="http://www.w3.org/2000/svg">
<path d="M21.7217 68.3258L41.9074 21.2044C42.0978 20.7475 42.4191 20.3572 42.831 20.0826C43.2428 19.808 43.7267 19.6615 44.2217 19.6615C44.7167 19.6615 45.2005 19.808 45.6124 20.0826C46.0242 20.3572 46.3456 20.7475 46.536 21.2044L66.7217 68.3258" stroke="#FFE524" stroke-width="4" stroke-linecap="round" stroke-linejoin="round"/>
<path d="M29.3716 50.4544H59.0716" stroke="#FFE524" stroke-width="4" stroke-linecap="round" stroke-linejoin="round"/>
<path d="M79.5789 2.24011H8.86461C5.3142 2.24011 2.43604 5.11828 2.43604 8.66868V79.383C2.43604 82.9334 5.3142 85.8115 8.86461 85.8115H79.5789C83.1293 85.8115 86.0075 82.9334 86.0075 79.383V8.66868C86.0075 5.11828 83.1293 2.24011 79.5789 2.24011Z" stroke="#FFE524" stroke-width="4" stroke-linecap="round" stroke-linejoin="round"/>
</svg>
