<?xml version="1.0" encoding="UTF-8"?>
<svg xmlns="http://www.w3.org/2000/svg" version="1.1" viewBox="0 0 88 88">
  <defs>
    <style>
      .cls-1 {
        fill: none;
        stroke: #ebcd38;
        stroke-linecap: round;
        stroke-linejoin: round;
        stroke-width: 4px;
      }
    </style>
  </defs>
  <!-- Generator: Adobe Illustrator 28.6.0, SVG Export Plug-In . SVG Version: 1.2.0 Build 709)  -->
  <g>
    <g id="Layer_1">
      <path class="cls-1" d="M21.7,68.3l20.2-47.1c.2-.5.5-.8.9-1.1.4-.3.9-.4,1.4-.4s1,.1,1.4.4c.4.3.7.7.9,1.1l20.2,47.1"/>
      <path class="cls-1" d="M29.4,50.5h29.7"/>
      <path class="cls-1" d="M79.6,2.2H8.9c-3.6,0-6.4,2.9-6.4,6.4v70.7c0,3.6,2.9,6.4,6.4,6.4h70.7c3.6,0,6.4-2.9,6.4-6.4V8.7c0-3.6-2.9-6.4-6.4-6.4Z"/>
    </g>
  </g>
</svg>