<svg width="85" height="95" viewBox="0 0 85 95" fill="none" xmlns="http://www.w3.org/2000/svg">
<path d="M62.7661 9.31541H74.7661C76.8878 9.31541 78.9227 10.0448 80.423 11.3431C81.9233 12.6415 82.7661 14.4024 82.7661 16.2385V85.4693C82.7661 87.3054 81.9233 89.0663 80.423 90.3646C78.9227 91.6629 76.8878 92.3923 74.7661 92.3923H10.7661C8.64438 92.3923 6.60955 91.6629 5.10926 90.3646C3.60897 89.0663 2.76611 87.3054 2.76611 85.4693V16.2385C2.76611 14.4024 3.60897 12.6415 5.10926 11.3431C6.60955 10.0448 8.64438 9.31541 10.7661 9.31541H22.7661" stroke="#FFE524" stroke-width="4" stroke-linecap="round" stroke-linejoin="round"/>
<path d="M54.7664 2.39233H30.7664C26.3481 2.39233 22.7664 5.4919 22.7664 9.31541V12.7769C22.7664 16.6005 26.3481 19.7 30.7664 19.7H54.7664C59.1846 19.7 62.7664 16.6005 62.7664 12.7769V9.31541C62.7664 5.4919 59.1846 2.39233 54.7664 2.39233Z" stroke="#FFE524" stroke-width="4" stroke-linecap="round" stroke-linejoin="round"/>
<path d="M22.7664 37.0077H62.7664" stroke="#FFE524" stroke-width="4" stroke-linecap="round" stroke-linejoin="round"/>
<path d="M22.7664 54.3154H62.7664" stroke="#FFE524" stroke-width="4" stroke-linecap="round" stroke-linejoin="round"/>
<path d="M22.7664 71.6231H62.7664" stroke="#FFE524" stroke-width="4" stroke-linecap="round" stroke-linejoin="round"/>
</svg>
