<?xml version="1.0" encoding="UTF-8"?>
<svg xmlns="http://www.w3.org/2000/svg" version="1.1" viewBox="0 0 85 95">
  <defs>
    <style>
      .cls-1 {
        fill: none;
        stroke: #ebcd38;
        stroke-linecap: round;
        stroke-linejoin: round;
        stroke-width: 4px;
      }
    </style>
  </defs>
  <!-- Generator: Adobe Illustrator 28.6.0, SVG Export Plug-In . SVG Version: 1.2.0 Build 709)  -->
  <g>
    <g id="Layer_1">
      <path class="cls-1" d="M62.8,9.3h12c2.1,0,4.2.7,5.7,2,1.5,1.3,2.3,3.1,2.3,4.9v69.2c0,1.8-.8,3.6-2.3,4.9-1.5,1.3-3.5,2-5.7,2H10.8c-2.1,0-4.2-.7-5.7-2-1.5-1.3-2.3-3.1-2.3-4.9V16.2c0-1.8.8-3.6,2.3-4.9,1.5-1.3,3.5-2,5.7-2h12"/>
      <path class="cls-1" d="M54.8,2.4h-24c-4.4,0-8,3.1-8,6.9v3.5c0,3.8,3.6,6.9,8,6.9h24c4.4,0,8-3.1,8-6.9v-3.5c0-3.8-3.6-6.9-8-6.9Z"/>
      <path class="cls-1" d="M22.8,37h40"/>
      <path class="cls-1" d="M22.8,54.3h40"/>
      <path class="cls-1" d="M22.8,71.6h40"/>
    </g>
  </g>
</svg>